<svg xmlns="http://www.w3.org/2000/svg" viewBox="0 0 400 520" fill="none" aria-hidden="true">
  <defs>
    <linearGradient id="bussky" x1="0" y1="0" x2="0" y2="1">
      <stop offset="0%" style="stop-color:#7dd3fc"/>
      <stop offset="100%" style="stop-color:#fef08a"/>
    </linearGradient>
  </defs>
  <rect width="400" height="520" fill="url(#bussky)"/>
  <ellipse cx="200" cy="480" rx="200" ry="45" fill="#86efac" opacity="0.4"/>
  <rect x="60" y="220" width="280" height="140" rx="16" fill="#facc15" stroke="#ca8a04" stroke-width="4"/>
  <rect x="80" y="240" width="70" height="55" rx="8" fill="#bae6fd" stroke="#0284c7" stroke-width="2"/>
  <rect x="165" y="240" width="70" height="55" rx="8" fill="#bae6fd" stroke="#0284c7" stroke-width="2"/>
  <rect x="250" y="240" width="70" height="55" rx="8" fill="#bae6fd" stroke="#0284c7" stroke-width="2"/>
  <circle cx="110" cy="380" r="32" fill="#1e293b"/>
  <circle cx="290" cy="380" r="32" fill="#1e293b"/>
  <rect x="320" y="280" width="50" height="70" rx="8" fill="#ef4444"/>
  <path d="M340 250 L355 280 L325 280 Z" fill="#dc2626"/>
  <circle cx="200" cy="100" r="40" fill="#fde047" opacity="0.9"/>
  <path d="M120 160 Q200 120 280 160" stroke="#a78bfa" stroke-width="3" fill="none" stroke-dasharray="8 6"/>
  <circle cx="100" cy="140" r="4" fill="#fff"/>
  <circle cx="300" cy="130" r="5" fill="#fff"/>
</svg>
