<svg xmlns="http://www.w3.org/2000/svg" viewBox="0 0 800 600" fill="none" aria-hidden="true">
  <rect width="800" height="600" fill="#fef9c3"/>
  <rect x="80" y="280" width="100" height="120" rx="8" fill="#fca5a5"/>
  <rect x="220" y="250" width="110" height="150" rx="8" fill="#93c5fd"/>
  <rect x="380" y="270" width="95" height="130" rx="8" fill="#86efac"/>
  <rect x="520" y="260" width="100" height="140" rx="8" fill="#fcd34d"/>
  <rect x="0" y="420" width="800" height="180" fill="#86efac" opacity="0.4"/>
  <g transform="translate(340 320)">
    <ellipse cx="40" cy="150" rx="38" ry="11" fill="#000" opacity="0.08"/>
    <path d="M15 145 Q40 50 65 145 L65 168 L15 168 Z" fill="#22d3ee"/>
    <circle cx="40" cy="58" r="26" fill="#fecdd3"/>
    <path d="M28 20 Q40 8 52 20" stroke="#831843" stroke-width="6" fill="none"/>
    <circle cx="33" cy="55" r="3" fill="#0f172a"/>
    <circle cx="47" cy="55" r="3" fill="#0f172a"/>
  </g>
  <circle cx="150" cy="80" r="3" fill="#fbbf24"/>
  <circle cx="280" cy="60" r="2" fill="#fbbf24"/>
  <circle cx="450" cy="70" r="3" fill="#fbbf24"/>
  <circle cx="600" cy="50" r="2" fill="#fbbf24"/>
  <path d="M700 100 L705 115 L720 115 L708 125 L713 140 L700 130 L687 140 L692 125 L680 115 L695 115 Z" fill="#fde047"/>
</svg>
