<svg xmlns="http://www.w3.org/2000/svg" viewBox="0 0 400 520" fill="none" aria-hidden="true">
  <defs>
    <linearGradient id="skyC" x1="0%" y1="0%" x2="0%" y2="100%">
      <stop offset="0%" style="stop-color:#7dd3fc"/>
      <stop offset="100%" style="stop-color:#fef9c3"/>
    </linearGradient>
    <linearGradient id="petal" x1="0%" y1="0%" x2="100%" y2="100%">
      <stop offset="0%" style="stop-color:#facc15"/>
      <stop offset="100%" style="stop-color:#eab308"/>
    </linearGradient>
  </defs>
  <rect width="400" height="520" fill="url(#skyC)"/>
  <ellipse cx="200" cy="480" rx="220" ry="60" fill="#86efac" opacity="0.5"/>
  <g transform="translate(200 220)">
    <g fill="url(#petal)">
      <ellipse cx="0" cy="-95" rx="28" ry="72" transform="rotate(0)"/>
      <ellipse cx="0" cy="-95" rx="28" ry="72" transform="rotate(45)"/>
      <ellipse cx="0" cy="-95" rx="28" ry="72" transform="rotate(90)"/>
      <ellipse cx="0" cy="-95" rx="28" ry="72" transform="rotate(135)"/>
      <ellipse cx="0" cy="-95" rx="28" ry="72" transform="rotate(180)"/>
      <ellipse cx="0" cy="-95" rx="28" ry="72" transform="rotate(225)"/>
      <ellipse cx="0" cy="-95" rx="28" ry="72" transform="rotate(270)"/>
      <ellipse cx="0" cy="-95" rx="28" ry="72" transform="rotate(315)"/>
    </g>
    <circle cx="0" cy="0" r="42" fill="#78350f"/>
    <circle cx="0" cy="0" r="28" fill="#451a03"/>
  </g>
  <rect x="188" y="320" width="24" height="180" rx="6" fill="#166534"/>
  <circle cx="280" cy="120" r="36" fill="#fde047" opacity="0.9"/>
  <circle cx="320" cy="100" r="6" fill="#fff" opacity="0.8"/>
  <circle cx="305" cy="95" r="4" fill="#fff" opacity="0.6"/>
  <g transform="translate(95 340)">
    <ellipse cx="30" cy="85" rx="35" ry="12" fill="#000" opacity="0.12"/>
    <path d="M10 80 Q30 20 50 80 L50 95 L10 95 Z" fill="#38bdf8"/>
    <circle cx="30" cy="28" r="22" fill="#fecdd3"/>
    <path d="M18 22 Q30 8 42 22" stroke="#7c2d12" stroke-width="3" fill="none" stroke-linecap="round"/>
    <circle cx="24" cy="26" r="3" fill="#1e293b"/>
    <circle cx="36" cy="26" r="3" fill="#1e293b"/>
    <path d="M26 36 Q30 40 34 36" stroke="#be123c" stroke-width="2" fill="none"/>
  </g>
  <ellipse cx="260" cy="400" rx="14" ry="8" fill="#92400e"/>
  <path d="M260 392 L258 380 Q260 372 262 380 Z" fill="#4ade80"/>
  <circle cx="255" cy="378" r="3" fill="#fef08a" opacity="0.95"/>
  <circle cx="268" cy="375" r="2" fill="#fef08a" opacity="0.85"/>
  <circle cx="262" cy="370" r="2" fill="#fef08a" opacity="0.7"/>
</svg>
