<svg xmlns="http://www.w3.org/2000/svg" viewBox="0 0 800 600" fill="none" aria-hidden="true">
  <rect width="800" height="600" fill="#fff7ed"/>
  <rect x="0" y="400" width="800" height="200" fill="#d9f99d" opacity="0.5"/>
  <rect x="60" y="120" width="680" height="380" rx="24" fill="#fff" stroke="#fdba74" stroke-width="4"/>
  <g transform="translate(420 200)">
    <ellipse cx="50" cy="160" rx="55" ry="16" fill="#000" opacity="0.08"/>
    <path d="M20 155 Q50 50 80 155 L80 185 L20 185 Z" fill="#c4b5fd"/>
    <circle cx="50" cy="65" r="38" fill="#fecdd3"/>
    <ellipse cx="50" cy="58" rx="36" ry="28" fill="#e9d5ff"/>
    <circle cx="38" cy="62" r="4" fill="#1e293b"/>
    <circle cx="62" cy="62" r="4" fill="#1e293b"/>
    <path d="M40 78 Q50 85 60 78" stroke="#9f1239" stroke-width="2" fill="none"/>
    <path d="M35 155 L35 120 Q35 100 50 95 Q65 100 65 120 L65 155" fill="#a78bfa"/>
  </g>
  <g transform="translate(200 260)">
    <ellipse cx="45" cy="140" rx="48" ry="14" fill="#000" opacity="0.1"/>
    <path d="M15 135 Q45 35 75 135 L75 165 L15 165 Z" fill="#38bdf8"/>
    <circle cx="45" cy="45" r="30" fill="#fecdd3"/>
    <path d="M30 38 Q45 22 60 38" stroke="#9a3412" stroke-width="3" fill="none"/>
    <circle cx="36" cy="45" r="3.5" fill="#0f172a"/>
    <circle cx="54" cy="45" r="3.5" fill="#0f172a"/>
    <path d="M38 58 Q45 64 52 58" stroke="#be123c" stroke-width="2" fill="none"/>
  </g>
  <g transform="translate(340 340)">
    <ellipse cx="60" cy="50" rx="70" ry="35" fill="#fef9c3" stroke="#ca8a04" stroke-width="3"/>
    <ellipse cx="60" cy="50" rx="18" ry="10" fill="#92400e"/>
    <path d="M42 48 Q60 35 78 48" stroke="#78350f" stroke-width="2" fill="none"/>
  </g>
</svg>
