<svg xmlns="http://www.w3.org/2000/svg" viewBox="0 0 800 600" fill="none" aria-hidden="true">
  <defs>
    <linearGradient id="sun6" x1="0" y1="0" x2="0" y2="1">
      <stop offset="0%" style="stop-color:#7dd3fc"/>
      <stop offset="100%" style="stop-color:#fef08a"/>
    </linearGradient>
    <linearGradient id="pet6" x1="0" y1="0" x2="1" y2="1">
      <stop offset="0%" style="stop-color:#fde047"/>
      <stop offset="100%" style="stop-color:#eab308"/>
    </linearGradient>
  </defs>
  <rect width="800" height="600" fill="url(#sun6)"/>
  <circle cx="680" cy="90" r="48" fill="#fde047"/>
  <ellipse cx="400" cy="520" rx="400" ry="90" fill="#4ade80" opacity="0.35"/>
  <g transform="translate(400 260)">
    <g fill="url(#pet6)">
      <ellipse cx="0" cy="-120" rx="36" ry="88" transform="rotate(0)"/>
      <ellipse cx="0" cy="-120" rx="36" ry="88" transform="rotate(40)"/>
      <ellipse cx="0" cy="-120" rx="36" ry="88" transform="rotate(80)"/>
      <ellipse cx="0" cy="-120" rx="36" ry="88" transform="rotate(120)"/>
      <ellipse cx="0" cy="-120" rx="36" ry="88" transform="rotate(160)"/>
      <ellipse cx="0" cy="-120" rx="36" ry="88" transform="rotate(200)"/>
      <ellipse cx="0" cy="-120" rx="36" ry="88" transform="rotate(240)"/>
      <ellipse cx="0" cy="-120" rx="36" ry="88" transform="rotate(280)"/>
      <ellipse cx="0" cy="-120" rx="36" ry="88" transform="rotate(320)"/>
    </g>
    <circle cx="0" cy="0" r="50" fill="#78350f"/>
    <circle cx="0" cy="0" r="32" fill="#451a03"/>
  </g>
  <rect x="388" y="260" width="24" height="200" rx="6" fill="#166534"/>
  <g transform="translate(520 180)">
    <ellipse cx="20" cy="35" rx="22" ry="15" fill="#fef08a" stroke="#ca8a04" stroke-width="2"/>
    <path d="M8 32 L32 32 L26 42 L14 42 Z" fill="#1e293b"/>
    <path d="M35 20 Q55 10 50 35 Q45 45 35 40" fill="#cbd5e1" opacity="0.9"/>
  </g>
  <g transform="translate(240 220)">
    <path d="M0 30 Q15 0 30 30 Q15 20 0 30" fill="#a855f7" opacity="0.85"/>
    <path d="M15 30 L15 50" stroke="#6b21a8" stroke-width="2"/>
  </g>
  <g transform="translate(560 320)">
    <ellipse cx="35" cy="160" rx="38" ry="11" fill="#000" opacity="0.1"/>
    <path d="M15 155 Q35 55 55 155 L55 175 L15 175 Z" fill="#38bdf8"/>
    <circle cx="35" cy="58" r="26" fill="#fecdd3"/>
    <path d="M24 52 Q35 40 46 52" stroke="#9a3412" stroke-width="2" fill="none"/>
    <circle cx="28" cy="58" r="2.5" fill="#0f172a"/>
    <circle cx="42" cy="58" r="2.5" fill="#0f172a"/>
    <path d="M28 70 Q35 76 42 70" stroke="#be123c" stroke-width="2" fill="none"/>
  </g>
</svg>
