<svg xmlns="http://www.w3.org/2000/svg" viewBox="0 0 800 600" fill="none" aria-hidden="true">
  <defs>
    <linearGradient id="moral" x1="0" y1="0" x2="1" y2="1">
      <stop offset="0%" style="stop-color:#fce7f3"/>
      <stop offset="50%" style="stop-color:#fef9c3"/>
      <stop offset="100%" style="stop-color:#dbeafe"/>
    </linearGradient>
  </defs>
  <rect width="800" height="600" fill="url(#moral)"/>
  <circle cx="400" cy="320" r="140" fill="#fef08a" opacity="0.25"/>
  <path d="M400 120 L420 200 L500 200 L440 250 L460 330 L400 285 L340 330 L360 250 L300 200 L380 200 Z" fill="#fbbf24" stroke="#d97706" stroke-width="3" opacity="0.85"/>
  <g transform="translate(400 380)">
    <path d="M0 -40 L0 60" stroke="#166534" stroke-width="12" stroke-linecap="round"/>
    <path d="M0 -45 L-25 -15 L0 -25 L25 -15 Z" fill="#22c55e"/>
    <ellipse cx="0" cy="-50" rx="8" ry="18" fill="#4ade80"/>
  </g>
  <ellipse cx="400" cy="500" rx="280" ry="60" fill="#86efac" opacity="0.3"/>
  <g opacity="0.7">
    <circle cx="150" cy="150" r="4" fill="#f472b6"/>
    <circle cx="650" cy="180" r="5" fill="#60a5fa"/>
    <circle cx="720" cy="280" r="3" fill="#a78bfa"/>
    <circle cx="100" cy="320" r="4" fill="#34d399"/>
  </g>
</svg>
