<svg xmlns="http://www.w3.org/2000/svg" viewBox="0 0 800 600" fill="none" aria-hidden="true">
  <rect width="800" height="600" fill="#f0fdf4"/>
  <rect x="0" y="380" width="800" height="220" fill="#bbf7d0"/>
  <ellipse cx="380" cy="400" rx="140" ry="40" fill="#78350f"/>
  <ellipse cx="380" cy="385" rx="115" ry="28" fill="#5c3d2e"/>
  <path d="M340 380 L360 340 L400 345 L430 330 L450 375" stroke="#166534" stroke-width="4" fill="none" stroke-linecap="round"/>
  <g transform="translate(500 285)">
    <ellipse cx="95" cy="110" rx="22" ry="14" fill="#22c55e" stroke="#166534" stroke-width="2"/>
    <circle cx="118" cy="102" r="14" fill="#22c55e" stroke="#166534" stroke-width="2"/>
    <circle cx="124" cy="98" r="3" fill="#14532d"/>
    <path d="M128 104 Q132 108 130 112" stroke="#14532d" stroke-width="2" fill="none"/>
    <ellipse cx="75" cy="105" rx="52" ry="38" fill="#854d0e" stroke="#451a03" stroke-width="3"/>
    <ellipse cx="60" cy="95" rx="8" ry="6" fill="#451a03" opacity="0.4"/>
    <ellipse cx="88" cy="88" rx="7" ry="5" fill="#451a03" opacity="0.35"/>
    <ellipse cx="78" cy="118" rx="7" ry="5" fill="#451a03" opacity="0.3"/>
    <path d="M28 115 L18 125 M22 100 L10 105 M125 118 L138 128 M118 125 L132 135" stroke="#166534" stroke-width="5" stroke-linecap="round"/>
  </g>
  <g transform="translate(180 200)">
    <ellipse cx="45" cy="200" rx="40" ry="12" fill="#000" opacity="0.08"/>
    <path d="M20 195 Q45 85 70 195 L70 215 L20 215 Z" fill="#38bdf8"/>
    <circle cx="45" cy="88" r="26" fill="#fecdd3"/>
    <path d="M32 82 Q45 70 58 82" stroke="#9a3412" stroke-width="2.5" fill="none"/>
    <circle cx="37" cy="88" r="2.5" fill="#0f172a"/>
    <circle cx="53" cy="88" r="2.5" fill="#0f172a"/>
  </g>
  <path d="M250 380 L250 320" stroke="#854d0e" stroke-width="6" stroke-linecap="round"/>
  <circle cx="250" cy="300" r="35" fill="#fde047" opacity="0.9"/>
</svg>
