<svg xmlns="http://www.w3.org/2000/svg" viewBox="0 0 800 600" fill="none" aria-hidden="true">
  <rect width="800" height="600" fill="#fefce8"/>
  <ellipse cx="400" cy="520" rx="350" ry="70" fill="#86efac" opacity="0.4"/>
  <ellipse cx="400" cy="420" rx="100" ry="32" fill="#78350f"/>
  <ellipse cx="400" cy="405" rx="85" ry="22" fill="#5c3d2e"/>
  <path d="M400 400 L400 280" stroke="#22c55e" stroke-width="14" stroke-linecap="round"/>
  <path d="M400 285 L385 310 L400 300 L415 310 Z" fill="#4ade80"/>
  <ellipse cx="400" cy="275" rx="6" ry="14" fill="#86efac"/>
  <ellipse cx="395" cy="268" rx="5" ry="12" fill="#4ade80" transform="rotate(-25 395 268)"/>
  <ellipse cx="405" cy="268" rx="5" ry="12" fill="#4ade80" transform="rotate(25 405 268)"/>
  <circle cx="388" cy="255" r="4" fill="#bae6fd" opacity="0.9"/>
  <circle cx="412" cy="260" r="3" fill="#bae6fd" opacity="0.7"/>
  <g transform="translate(520 240)">
    <ellipse cx="35" cy="180" rx="38" ry="11" fill="#000" opacity="0.1"/>
    <path d="M15 175 Q35 70 55 175 L55 195 L15 195 Z" fill="#0ea5e9"/>
    <circle cx="35" cy="58" r="24" fill="#fecdd3"/>
    <path d="M24 52 Q35 42 46 52" stroke="#9a3412" stroke-width="2" fill="none"/>
    <circle cx="28" cy="58" r="2.5" fill="#0f172a"/>
    <circle cx="42" cy="58" r="2.5" fill="#0f172a"/>
    <path d="M28 68 Q35 74 42 68" stroke="#be123c" stroke-width="1.5" fill="none"/>
  </g>
  <path d="M180 200 Q200 180 220 200" stroke="#fde047" stroke-width="3" fill="none"/>
  <circle cx="650" cy="80" r="40" fill="#fde047" opacity="0.85"/>
</svg>
