<svg xmlns="http://www.w3.org/2000/svg" viewBox="0 0 800 600" fill="none" aria-hidden="true">
  <defs>
    <radialGradient id="mbl">
      <stop offset="0%" style="stop-color:#93c5fd"/>
      <stop offset="100%" style="stop-color:#1d4ed8"/>
    </radialGradient>
  </defs>
  <rect width="800" height="600" fill="#bfdbfe"/>
  <rect x="0" y="380" width="800" height="220" fill="#86efac" opacity="0.35"/>
  <rect x="120" y="200" width="200" height="24" rx="8" fill="#f97316"/>
  <rect x="480" y="220" width="200" height="20" rx="8" fill="#f97316"/>
  <g transform="translate(280 240)">
    <ellipse cx="45" cy="180" rx="40" ry="12" fill="#000" opacity="0.1"/>
    <path d="M20 175 Q45 70 70 175 L70 200 L20 200 Z" fill="#38bdf8"/>
    <circle cx="45" cy="75" r="28" fill="#fecdd3"/>
    <path d="M32 68 Q45 55 58 68" stroke="#9a3412" stroke-width="3" fill="none"/>
    <circle cx="55" cy="130" r="22" fill="url(#mbl)" stroke="#1e40af" stroke-width="3"/>
  </g>
  <g transform="translate(520 260)">
    <ellipse cx="40" cy="170" rx="38" ry="11" fill="#000" opacity="0.1"/>
    <path d="M15 165 Q40 65 65 165 L65 188 L15 188 Z" fill="#fcd34d"/>
    <circle cx="40" cy="68" r="26" fill="#d4a574"/>
    <path d="M32 95 Q40 88 48 95" stroke="#1e40af" stroke-width="2" fill="none"/>
    <ellipse cx="38" cy="78" rx="4" ry="6" fill="#38bdf8"/>
  </g>
</svg>
